<svg width="97" height="32" viewBox="0 0 97 32" fill="#fff" xmlns="http://www.w3.org/2000/svg">
<path d="M14.8274 18.2317H11.4232C11.1962 18.2317 10.9693 18.0047 10.9693 17.7778L10.0615 13.844H5.14421L4.23641 17.7778C4.16076 18.0047 4.00946 18.2317 3.78251 18.2317H0.378251C0.1513 18.2317 0 18.0804 0 17.8534C0 17.8534 0 17.7778 0 17.7021L3.63121 2.7234C4.16076 0.378251 5.97636 0 7.64066 0C9.30496 0 11.0449 0.378251 11.6501 2.7234L15.2813 17.7021C15.2813 17.7778 15.2813 17.7778 15.2813 17.8534C15.2813 18.0804 15.13 18.2317 14.8274 18.2317ZM7.94326 3.78251C7.86761 3.55556 7.86761 3.40426 7.64066 3.40426C7.41371 3.40426 7.33806 3.55556 7.33806 3.78251L5.82506 10.4397H9.45626L7.94326 3.78251Z" fill="#fff"/>
<path d="M29.4278 3.78251C29.3522 3.78251 29.3522 3.78251 29.4278 3.78251C28.2174 3.70686 26.4018 3.55556 24.2836 3.55556C22.3167 3.55556 21.1063 4.46336 21.1063 7.64066V10.6667C21.1063 13.9953 22.6193 14.7518 23.8297 14.7518C24.5106 14.7518 25.1158 14.7518 25.721 14.6761V9.07801C25.721 8.77541 25.9479 8.62411 26.1749 8.62411H29.2765C29.5791 8.62411 29.7304 8.85106 29.7304 9.07801V17.2482C29.7304 17.5508 29.5791 17.7021 29.2765 17.7778C27.9905 18.0804 26.2505 18.3073 23.8297 18.3073C21.1063 18.3073 16.9456 16.7187 16.9456 10.591V7.56501C16.9456 1.513 20.8037 0 24.2836 0C26.7044 0 28.4444 0.378251 29.3522 0.529551C29.5791 0.605201 29.7304 0.680851 29.7304 0.907801V3.47991C29.8061 3.78251 29.6548 3.78251 29.4278 3.78251Z" fill="#fff"/>
<path d="M46.6005 18.2317H42.8936C42.591 18.2317 42.5153 18.0047 42.4397 17.7778L39.1867 11.6501H38.8841C38.3546 11.6501 37.5981 11.5745 37.1442 11.5745V17.7021C37.1442 18.0047 36.9172 18.156 36.6903 18.156H33.513C33.2104 18.156 33.0591 17.9291 33.0591 17.7021V1.513C33.0591 0.680851 33.3617 0.453901 34.1182 0.378251C35.2529 0.1513 37.2955 0 39.0354 0C43.1205 0 46.2979 1.3617 46.2979 5.67376V5.97636C46.2979 8.54846 44.9362 10.1371 43.1962 10.818L46.8274 17.6265C46.9031 17.7021 46.9031 17.8534 46.9031 17.9291C46.9031 18.0804 46.8274 18.2317 46.6005 18.2317ZM42.2127 5.67376C42.2127 4.16076 41.078 3.55556 39.0354 3.55556C38.7328 3.55556 37.4468 3.63121 37.1442 3.63121V8.24586C37.4468 8.24586 38.5815 8.32151 38.8841 8.32151C41.4562 8.32151 42.2127 7.64066 42.2127 6.05201V5.67376Z" fill="#fff"/>
<path d="M56.2834 18.4586C52.274 18.4586 49.0967 16.3404 49.0967 10.6667V7.79196C49.0967 2.1182 52.274 0 56.2834 0C60.2929 0 63.4702 2.1182 63.4702 7.79196V10.6667C63.3946 16.2648 60.2172 18.4586 56.2834 18.4586ZM59.2338 7.79196C59.2338 4.91726 58.2503 3.63121 56.2078 3.63121C54.1652 3.63121 53.2574 4.84161 53.2574 7.79196V10.6667C53.2574 13.5414 54.1652 14.8274 56.2078 14.8274C58.2503 14.8274 59.2338 13.617 59.2338 10.6667V7.79196Z" fill="#fff"/>
<path d="M73.1536 18.4586C69.1441 18.4586 65.9668 16.3404 65.9668 10.6667V7.79196C65.9668 2.1182 69.1441 0 73.1536 0C77.163 0 80.3403 2.1182 80.3403 7.79196V10.6667C80.3403 16.2648 77.163 18.4586 73.1536 18.4586ZM76.1796 7.79196C76.1796 4.91726 75.1961 3.63121 73.1536 3.63121C71.111 3.63121 70.2032 4.84161 70.2032 7.79196V10.6667C70.2032 13.5414 71.111 14.8274 73.1536 14.8274C75.1961 14.8274 76.1796 13.617 76.1796 10.6667V7.79196Z" fill="#fff"/>
<path d="M89.3428 11.8771C88.7376 11.8771 87.9811 11.8015 87.3759 11.8015V17.7022C87.3759 18.0048 87.149 18.1561 86.922 18.1561H83.8204C83.5178 18.1561 83.3665 17.9291 83.3665 17.7022V1.51304C83.3665 0.680884 83.6691 0.453934 84.4256 0.378284C85.636 0.151334 87.6029 0.0756836 89.3428 0.0756836C92.974 0.0756836 96.6052 1.36174 96.6052 5.90074V6.05204C96.5296 10.5911 92.974 11.8771 89.3428 11.8771ZM92.4445 5.82509C92.4445 4.08514 91.3854 3.40429 89.3428 3.40429C89.0402 3.40429 87.6785 3.47994 87.3759 3.47994V8.3972C87.6785 8.3972 89.0402 8.47285 89.3428 8.47285C91.461 8.47285 92.4445 7.6407 92.4445 6.05204V5.82509Z" fill="#fff"/>
<path d="M1.83253 7.42981H5.72362V8.87968H0V0.120321H1.83253V7.42981Z" transform="translate(0 23)"/>
<path d="M8.72897 8.87968H6.89644V0.120321H8.72897V8.87968Z" transform="translate(0 23)" fill="#fff"/>
<path d="M13.7196 6.70789L15.7354 0.120321H17.7756L14.6786 8.87968H12.7667L9.68189 0.120321H11.716L13.7196 6.70789Z" transform="translate(0 23)" fill="#fff"/>
<path d="M23.9696 5.08356H20.4511V7.42981H24.5804V8.87968H18.6186V0.120321H24.5682V1.58222H20.4511V3.66979H23.9696V5.08356Z" transform="translate(0 23)" fill="#fff"/>
<path d="M30.2674 6.58155C30.2674 6.24064 30.1452 5.97995 29.9009 5.79947C29.6565 5.61497 29.2167 5.42246 28.5814 5.22193C27.9462 5.01738 27.4432 4.81684 27.0726 4.62032C26.0627 4.08289 25.5577 3.35896 25.5577 2.44853C25.5577 1.97527 25.6921 1.55414 25.9609 1.18516C26.2337 0.812166 26.6227 0.52139 27.1276 0.312834C27.6367 0.104278 28.2068 0 28.838 0C29.4733 0 30.0393 0.114305 30.5361 0.342914C31.033 0.567513 31.4178 0.886364 31.6906 1.29947C31.9675 1.71257 32.106 2.18182 32.106 2.70722H30.2735C30.2735 2.30615 30.1452 1.99532 29.8886 1.77473C29.6321 1.55013 29.2717 1.43783 28.8074 1.43783C28.3595 1.43783 28.0113 1.53209 27.7629 1.72059C27.5145 1.90508 27.3903 2.14973 27.3903 2.45455C27.3903 2.7393 27.5348 2.97794 27.824 3.17045C28.1172 3.36297 28.5468 3.54345 29.1129 3.7119C30.1554 4.02072 30.9149 4.40374 31.3913 4.86096C31.8678 5.31818 32.106 5.8877 32.106 6.56952C32.106 7.32754 31.8148 7.92313 31.2325 8.35628C30.6502 8.78543 29.8662 9 28.8807 9C28.1966 9 27.5735 8.87767 27.0116 8.63302C26.4496 8.38436 26.02 8.04545 25.7227 7.61631C25.4295 7.18717 25.2829 6.68984 25.2829 6.12433H27.1215C27.1215 7.09091 27.7079 7.5742 28.8807 7.5742C29.3165 7.5742 29.6565 7.48797 29.9009 7.31551C30.1452 7.13904 30.2674 6.89439 30.2674 6.58155Z" transform="translate(0 23)" fill="#fff"/>
<path d="M40.047 1.58222H37.3226V8.87968H35.4901V1.58222H32.8024V0.120321H40.047V1.58222Z" transform="translate(0 23)" fill="#fff"/>
<path d="M48.2323 4.69853C48.2323 5.56083 48.0776 6.31684 47.7681 6.96658C47.4586 7.61631 47.0147 8.11765 46.4364 8.47059C45.8622 8.82353 45.2025 9 44.4573 9C43.7202 9 43.0625 8.82553 42.4843 8.4766C41.906 8.12767 41.458 7.63035 41.1404 6.98463C40.8228 6.33489 40.6619 5.5889 40.6578 4.74666V4.3135C40.6578 3.4512 40.8146 2.69318 41.1282 2.03944C41.4458 1.38168 41.8917 0.878342 42.4659 0.529412C43.0442 0.176471 43.7039 0 44.4451 0C45.1862 0 45.8439 0.176471 46.4181 0.529412C46.9964 0.878342 47.4423 1.38168 47.7559 2.03944C48.0735 2.69318 48.2323 3.4492 48.2323 4.30749V4.69853ZM46.3753 4.30147C46.3753 3.38302 46.2084 2.68516 45.8744 2.20789C45.5405 1.73061 45.0641 1.49198 44.4451 1.49198C43.8302 1.49198 43.3557 1.72861 43.0218 2.20187C42.6879 2.67112 42.5189 3.36096 42.5148 4.27139V4.69853C42.5148 5.59291 42.6818 6.28676 43.0157 6.78008C43.3496 7.2734 43.8302 7.52005 44.4573 7.52005C45.0722 7.52005 45.5446 7.28342 45.8744 6.81016C46.2043 6.33289 46.3713 5.63904 46.3753 4.72861V4.30147Z" transform="translate(0 23)" fill="fillblack"/>
<path d="M56.5459 5.9619C56.4767 6.90441 56.1224 7.64639 55.483 8.18783C54.8478 8.72928 54.0089 9 52.9664 9C51.8261 9 50.9282 8.62299 50.2725 7.86898C49.621 7.11096 49.2952 6.07219 49.2952 4.75267V4.21725C49.2952 3.375 49.4459 2.63302 49.7472 1.99131C50.0486 1.3496 50.4782 0.858289 51.0361 0.51738C51.5981 0.17246 52.2496 0 52.9908 0C54.017 0 54.8437 0.270722 55.4708 0.812166C56.098 1.35361 56.4604 2.11364 56.5581 3.09225H54.7256C54.6808 2.52674 54.5199 2.11765 54.243 1.86497C53.9702 1.60829 53.5528 1.47995 52.9908 1.47995C52.3799 1.47995 51.9218 1.69652 51.6164 2.12968C51.315 2.55882 51.1603 3.2266 51.1521 4.13302V4.79479C51.1521 5.74131 51.2967 6.43316 51.5858 6.87032C51.8791 7.30749 52.3392 7.52607 52.9664 7.52607C53.5324 7.52607 53.9539 7.39973 54.2308 7.14706C54.5118 6.89037 54.6726 6.49532 54.7134 5.9619H56.5459Z" transform="translate(0 23)" />
<path d="M60.5347 5.36631L59.5818 6.37701V8.87968H57.7493V0.120321H59.5818V4.09091L60.3881 3.00201L62.6544 0.120321H64.9084L61.7503 4.0127L65 8.87968H62.8193L60.5347 5.36631Z" transform="translate(0 23)" fill="#fff"/>
</svg>
