<svg version="1.1" viewBox="0 0 100 35" xmlns="http://www.w3.org/2000/svg"  fill="#fff">
 <path d="m8.5127 1.1504c-1.706 0-3.5355 0.37114-4.1035 2.7441l-3.6816 15.324c0 0.049-0.02539 0.09805-0.02539 0.12305 0 0.248 0.17292 0.39648 0.41992 0.39648h3.4609c0.247 0 0.44514-0.19831 0.49414-0.44531l0.88867-4.0527h5.0664l0.89062 4.0527c0.05 0.247 0.24714 0.44531 0.49414 0.44531h3.4609c0.247 0 0.41992-0.14948 0.41992-0.39648 0-0.025-0.02344-0.07405-0.02344-0.12305l-3.6836-15.326c-0.569-2.372-2.3721-2.7422-4.0781-2.7422zm17.006 0c-3.584 0-7.5137 1.5818-7.5137 7.8848v3.0645c0 6.254 4.225 7.8594 7.043 7.8594 2.472 0 4.2021-0.24753 5.5371-0.51953 0.37-0.074 0.49414-0.22136 0.49414-0.56836v-8.3047c0-0.271-0.22314-0.49414-0.49414-0.49414h-3.1641c-0.272 0-0.4707 0.22314-0.4707 0.49414v5.6855c-0.593 0.05-1.2103 0.07422-1.9023 0.07422-1.211 0-2.7676-0.79017-2.7676-4.2012v-3.0898c-1e-6 -3.238 1.2363-4.2012 3.2383-4.2012 2.1 0 3.9536 0.14827 5.1406 0.19727h0.07422c0.222 0 0.37009-0.04831 0.37109-0.32031v-2.6211c0-0.223-0.17488-0.32209-0.42188-0.37109-0.915-0.198-2.6921-0.56836-5.1641-0.56836zm15.051 0c-1.778 0-3.8796 0.14831-5.0156 0.32031-0.766 0.124-1.1113 0.3475-1.1113 1.1875v16.584c0 0.272 0.22314 0.49609 0.49414 0.49609h3.2129c0.271 0 0.49414-0.22409 0.49414-0.49609v-6.2773c0.471 0 1.2349 0.05078 1.7539 0.05078l0.27148-0.02539 3.3125 6.252c0.124 0.248 0.22409 0.49609 0.49609 0.49609h3.7793c0.272 0 0.37014-0.12483 0.36914-0.29883 0-0.074-0.02422-0.17248-0.07422-0.27148l-3.7305-6.9688c1.804-0.716 3.1875-2.3234 3.1875-4.9434v-0.32226c1e-6 -4.375-3.2385-5.7832-7.4395-5.7832zm17.574 0c-4.078 0-7.3145 2.1996-7.3145 7.9336v2.9434c0 5.734 3.2365 7.9316 7.3145 7.9316 4.079 0 7.3174-2.1986 7.3164-7.9336v-2.9414c0-5.734-3.2384-7.9336-7.3164-7.9336zm17.254 0c-4.078 0-7.3164 2.1996-7.3164 7.9336v2.9434c0 5.734 3.2384 7.9316 7.3164 7.9316s7.3155-2.1986 7.3145-7.9336v-2.9414c0-5.734-3.2375-7.9336-7.3145-7.9336zm16.486 0c-1.78 0-3.7566 0.12331-5.0176 0.32031-0.765 0.124-1.1133 0.3475-1.1133 1.1875v16.609c0 0.272 0.22509 0.4707 0.49609 0.4707h3.1875c0.272 0 0.49414-0.22409 0.49414-0.49609v-6.0039c0.617 0.025 1.409 0.07226 2.002 0.07226 3.682 0 7.3652-1.3585 7.3652-5.9805v-0.22266c0-4.647-3.6821-5.957-7.4141-5.957zm-83.371 3.5098c0.222 0 0.27131 0.12409 0.32031 0.37109l1.5078 6.8223h-3.6816l1.5078-6.8223c0.049-0.247 0.1237-0.37109 0.3457-0.37109zm83.42 0c2.075 0 3.1641 0.69227 3.1641 2.4473v0.2207c0 1.681-0.96506 2.498-3.1641 2.498-0.272 0-1.731-0.02483-2.002-0.04883v-5.043c0.296-0.025 1.656-0.07422 2.002-0.07422zm-51.361 0.07422c2.077 0 3.2363 0.69122 3.2363 2.1992v0.32227c0 1.681-0.81416 2.3477-3.4102 2.3477-0.273 0-1.4819-0.02383-1.7539-0.04883v-4.7461c0.297-0.025 1.5817-0.07422 1.9277-0.07422zm17.574 0.12305c2.076 0 3.0625 1.2606 3.0625 4.2266v2.9414c0 2.966-0.9865 4.2266-3.0625 4.2266s-3.041-1.2606-3.041-4.2266v-2.9414c0-2.966 0.96502-4.2266 3.041-4.2266zm17.252 0c2.075 0 3.0645 1.2606 3.0645 4.2266v2.9414c0 2.966-0.98945 4.2266-3.0645 4.2266-2.076 0-3.0391-1.2606-3.0391-4.2266v-2.9414c1e-6 -2.966 0.96306-4.2266 3.0391-4.2266zm-62.201 20.316c-0.609-1e-6 -1.1762 0.11098-1.6992 0.33398-0.523 0.222-0.97638 0.52706-1.3594 0.91406-0.382 0.388-0.68139 0.84605-0.90039 1.373-0.218 0.528-0.32812 1.0988-0.32812 1.7168 0 0.61 0.11012 1.1819 0.32812 1.7129s0.51739 0.98895 0.90039 1.377c0.383 0.388 0.83637 0.69302 1.3594 0.91602 0.523 0.222 1.0902 0.33203 1.6992 0.33203 0.61 0 1.1772-0.11003 1.7012-0.33203 0.523-0.223 0.97542-0.52802 1.3574-0.91602s0.68434-0.84595 0.90234-1.377 0.32812-1.1029 0.32812-1.7129c0-0.618-0.11012-1.1898-0.32812-1.7168s-0.51934-0.98505-0.90234-1.373c-0.382-0.387-0.83442-0.69206-1.3574-0.91406-0.524-0.223-1.0912-0.33398-1.7012-0.33398zm9.541 0c-0.61-1e-6 -1.1762 0.11098-1.6992 0.33398-0.524 0.222-0.97638 0.52706-1.3594 0.91406-0.382 0.388-0.68334 0.84605-0.90234 1.373-0.218 0.528-0.32617 1.0988-0.32617 1.7168 0 0.61 0.10817 1.1819 0.32617 1.7129s0.51934 0.98895 0.90234 1.377 0.83638 0.69302 1.3594 0.91602c0.523 0.222 1.0902 0.33203 1.6992 0.33203 0.61 0 1.1772-0.11003 1.7012-0.33203 0.523-0.223 0.97542-0.52802 1.3574-0.91602 0.382-0.388 0.68334-0.84595 0.90234-1.377s0.32812-1.1029 0.32812-1.7129c0-0.618-0.11012-1.1898-0.32812-1.7168s-0.51934-0.98505-0.90234-1.373c-0.382-0.387-0.83442-0.69206-1.3574-0.91406-0.523-0.223-1.0912-0.33398-1.7012-0.33398zm49.559 0c-0.61-1e-6 -1.1762 0.11098-1.6992 0.33398-0.523 0.222-0.97538 0.52706-1.3594 0.91406-0.382 0.388-0.68334 0.84505-0.90234 1.373s-0.32617 1.0988-0.32617 1.7168c0 0.61 0.10817 1.1819 0.32617 1.7129s0.51934 0.98895 0.90234 1.377 0.83638 0.69302 1.3594 0.91602c0.523 0.222 1.0892 0.33203 1.6992 0.33203 0.609 0 1.1762-0.11003 1.6992-0.33203 0.522-0.223 0.97638-0.52802 1.3594-0.91602s0.68139-0.84595 0.90039-1.377 0.32812-1.1029 0.32812-1.7129c0-0.618-0.11012-1.1898-0.32812-1.7168s-0.51639-0.98505-0.90039-1.373c-0.382-0.387-0.83738-0.69206-1.3594-0.91406-0.523-0.223-1.0902-0.33398-1.6992-0.33398zm-67.316 0.01367c-0.634 0-1.2133 0.11284-1.7363 0.33984s-0.97266 0.53574-1.3477 0.92774c-0.375 0.392-0.66509 0.85181-0.87109 1.3828-0.206 0.531-0.30859 1.1029-0.30859 1.7129 0 0.626 0.10259 1.2007 0.30859 1.7227 0.206 0.523 0.49609 0.97638 0.87109 1.3594s0.8218 0.68148 1.3418 0.89648c0.519 0.215 1.0908 0.32031 1.7168 0.32031 0.379 0 0.7428-0.04477 1.0918-0.13477 0.351-0.091 0.67752-0.21509 0.97852-0.37109s0.57331-0.33883 0.82031-0.54883 0.45786-0.43583 0.63086-0.67383l-1.2734-1.1602c-0.123 0.141-0.25081 0.27706-0.38281 0.41406-0.132 0.135-0.28217 0.25247-0.45117 0.35547s-0.36208 0.18505-0.58008 0.24805-0.47644 0.09375-0.77344 0.09375c-0.362 0-0.68661-0.06427-0.97461-0.19727-0.289-0.131-0.53619-0.31297-0.74219-0.54297s-0.36556-0.50341-0.47656-0.81641-0.16602-0.65067-0.16602-1.0137c0-0.354 0.05402-0.69081 0.16602-1.0078 0.112-0.317 0.27056-0.59398 0.47656-0.83398 0.206-0.239 0.45791-0.4265 0.75391-0.5625s0.629-0.20508 1-0.20508c0.469 0 0.87294 0.10641 1.2109 0.31641 0.337 0.21 0.62995 0.48798 0.87695 0.83398l1.2754-1.2246c-0.379-0.527-0.85573-0.93094-1.4277-1.2109-0.573-0.28-1.2408-0.41992-2.0078-0.41992zm23.332 0.20898v8.2441h1.8184v-2.9023h1.2734c0.371 0 0.72355-0.05883 1.0605-0.17383s0.63648-0.28481 0.89648-0.50781 0.46614-0.49998 0.61914-0.83398 0.22852-0.72297 0.22852-1.168c0-0.346-0.05597-0.678-0.16797-1-0.112-0.322-0.28453-0.60466-0.51953-0.84766s-0.53448-0.43894-0.89648-0.58594c-0.364-0.15-0.79955-0.22461-1.3105-0.22461zm7.1426 0v8.2441h5.9082v-1.6445h-4.041v-1.7793h2.9297v-1.582h-2.9297v-1.6055h3.7695v-1.6328zm7.1699 0v8.2441h1.8164v-3.0273h1.0371l1.5332 3.0273h2.0508l-1.8301-3.3008c0.429-0.239 0.76209-0.55703 0.99609-0.95703 0.235-0.399 0.35156-0.86734 0.35156-1.4023 0-0.355-0.06069-0.68895-0.17969-1.002-0.119-0.313-0.30097-0.58531-0.54297-0.82031-0.243-0.236-0.5472-0.42064-0.9082-0.55664-0.365-0.137-0.78272-0.20508-1.2617-0.20508zm9.8613 0-3.0781 8.2441h1.9531l0.63086-1.8906h2.9023l0.63086 1.8906h2.0391l-3.0156-8.2441zm4.1016 0v1.6445h2.6699v6.5996h1.8789v-6.5996h2.6562v-1.6445zm8.2695 0v8.2441h1.8652v-8.2441zm13.014 0v8.2441h1.8398v-5.4512l3.6582 5.4512h1.6934v-8.2441h-1.8418v5.3516l-3.5703-5.3516zm-64.674 1.5078c0.363 0 0.68756 0.06808 0.97656 0.20508 0.288 0.136 0.53433 0.32064 0.73633 0.55664 0.202 0.234 0.35489 0.50927 0.46289 0.82227 0.107 0.313 0.16211 0.646 0.16211 1s-0.05611 0.68895-0.16211 1.002c-0.108 0.313-0.26089 0.58912-0.46289 0.82812s-0.44733 0.42641-0.73633 0.56641-0.61356 0.21094-0.97656 0.21094c-0.362 1e-6 -0.69042-0.07194-0.98242-0.21094-0.292-0.139-0.53823-0.32741-0.74023-0.56641s-0.35589-0.51512-0.46289-0.82812c-0.108-0.313-0.16211-0.64795-0.16211-1.002 0-0.355 0.05511-0.687 0.16211-1 0.107-0.313 0.26089-0.58827 0.46289-0.82227 0.201-0.237 0.44823-0.42064 0.74023-0.55664 0.292-0.137 0.62042-0.20508 0.98242-0.20508zm9.541 0c0.363 0 0.68756 0.06808 0.97656 0.20508 0.288 0.136 0.53433 0.32064 0.73633 0.55664 0.202 0.234 0.35589 0.50927 0.46289 0.82227s0.16211 0.646 0.16211 1-0.05611 0.68895-0.16211 1.002c-0.108 0.313-0.26089 0.58912-0.46289 0.82812s-0.44733 0.42641-0.73633 0.56641-0.61356 0.21094-0.97656 0.21094c-0.363 1e-6 -0.69042-0.07094-0.98242-0.21094-0.292-0.139-0.53823-0.32741-0.74024-0.56641-0.202-0.239-0.35589-0.51512-0.46289-0.82812-0.108-0.313-0.16211-0.64795-0.16211-1.002 0-0.355 0.05511-0.687 0.16211-1s0.26089-0.58827 0.46289-0.82227c0.201-0.237 0.44824-0.42064 0.74024-0.55664 0.293-0.137 0.62042-0.20508 0.98242-0.20508zm49.559 0c0.363 0 0.68756 0.06808 0.97656 0.20508 0.289 0.136 0.53238 0.32064 0.73438 0.55664 0.202 0.234 0.35689 0.50927 0.46289 0.82227 0.107 0.313 0.16211 0.646 0.16211 1s-0.05511 0.68895-0.16211 1.002c-0.107 0.313-0.26089 0.58912-0.46289 0.82812s-0.44538 0.42641-0.73438 0.56641-0.61456 0.21094-0.97656 0.21094c-0.362 1e-6 -0.68942-0.07194-0.98242-0.21094-0.293-0.139-0.53924-0.32741-0.74024-0.56641-0.202-0.239-0.35884-0.51512-0.46484-0.82812-0.107-0.313-0.16016-0.64795-0.16016-1.002 0-0.355 0.05316-0.687 0.16016-1 0.107-0.313 0.26284-0.58827 0.46484-0.82227 0.201-0.237 0.44724-0.42064 0.74024-0.55664 0.293-0.137 0.61942-0.20508 0.98242-0.20508zm-42.168 0.01367h1.0762c0.346 0 0.62017 0.11012 0.82617 0.32812s0.31055 0.4997 0.31055 0.8457c0 0.338-0.10269 0.61127-0.30469 0.82227-0.201 0.209-0.47431 0.31445-0.82031 0.31445h-1.0879zm14.312 0.01172h1.1484c0.346 0 0.61745 0.09887 0.81445 0.29688 0.197 0.198 0.29688 0.46473 0.29688 0.80273 0 0.314-0.09988 0.5733-0.29688 0.7793-0.197 0.206-0.46745 0.30859-0.81445 0.30859h-1.1484zm9.0078 0.25976 1.002 3.1133h-2.0273z"/>
</svg>
