<?xml version="1.0" encoding="utf-8"?>
<!-- Generator: Adobe Illustrator 22.1.0, SVG Export Plug-In . SVG Version: 6.00 Build 0)  -->
<svg version="1.1" id="Layer_1" xmlns="http://www.w3.org/2000/svg" xmlns:xlink="http://www.w3.org/1999/xlink" x="0px" y="0px"
	 width="48px" height="48px" viewBox="0 0 48 48" enable-background="new 0 0 48 48" xml:space="preserve">
<g>
	<g>
		<rect fill="none" width="48" height="48"/>
	</g>
	<path d="M24,4C13,4,4,13,4,24c0,5.4,2.1,10.2,5.6,13.8C9.2,35.6,8.4,30.6,10,29c2.7-2.7,5.3-1.3,6.4-0.5c0.2-0.2,0.4-0.4,0.6-0.5
		c4-3,5.1-1.2,6-4c0.5-1.6-0.1-2.4-0.8-2.7c-0.5,1.2-1.5,2.2-2.9,2.4c-2.1,0.4-4.1-1-4.6-3.1c-0.1-0.6-0.1-1-0.3-1.6
		c-0.4-1.1-1.3-1.9-1.5-3.1c-0.2,0.1-0.4,0.2-0.7,0.2c-1,0.2-1.9,0-2.7-0.5c0.5-0.8,1.3-1.3,2.3-1.5c0.4-0.1,0.7-0.1,1,0
		c0-0.1,0.1-0.2,0.1-0.3c0.1-0.9,0.1-0.9,1.1-2c0.7-0.7,1.5-1.2,2.6-1.4c1.1-0.2,2.1-0.1,3,0.4c1.3,0.7,1.3,0.7,1.8,1.4
		c0.1,0.1,0.1,0.2,0.2,0.3c0.3-0.2,0.6-0.3,1-0.4c1-0.2,1.9,0,2.7,0.5C24.8,13.3,24,13.9,23,14c-0.2,0-0.5,0.1-0.7,0.1
		c0,0.2,0,0.4,0,0.6c3.1-0.5,10.5-1,13.6,5.3c3,6,0,13-3,15c-2.4,1.6-6,4-11,3c-3.9-0.8-7.1-4.5-6.5-7.6c-0.8-0.7-2.4-1.5-4.5,0.6
		c-1.1,1.1-1.2,4.9-1.1,7.2C13.5,41.8,18.5,44,24,44c11,0,20-9,20-20C44,13,35,4,24,4z"/>
</g>
</svg>
