<?xml version="1.0" encoding="utf-8"?>
<!-- Generator: Adobe Illustrator 22.1.0, SVG Export Plug-In . SVG Version: 6.00 Build 0)  -->
<svg version="1.1" id="Layer_1" xmlns="http://www.w3.org/2000/svg" xmlns:xlink="http://www.w3.org/1999/xlink" x="0px" y="0px"
	 width="48px" height="48px" viewBox="0 0 48 48" enable-background="new 0 0 48 48" xml:space="preserve">
<g>
	<g>
		<rect fill="none" width="48" height="48"/>
	</g>
	<g>
		<g>
			<path d="M34,18.4c-1.2-1.2-2.9-2-4.7-2c-0.7,0-1.3,0.1-1.9,0.3c-0.1-0.2-0.2-0.4-0.3-0.6c1.1-1.3,1.8-2.8,1.8-4.4
				c0-2.3-0.9-4.1-3.3-5.7c0.8,1,1.3,2.3,1.3,3.6c0,2-0.9,2.9-2.5,3.3c-1.5-1.1-3.3-1.8-5.4-1.8c-2,0-3.8,0.6-5.2,1.7
				c-1.6-0.4-2.6-1.3-2.6-3.2c0-1.3,0.5-2.6,1.3-3.6C10,7.6,9.1,9.5,9.1,11.7c0,1.6,0.7,3.2,1.8,4.4c-0.1,0.2-0.2,0.4-0.3,0.6
				c-0.6-0.2-1.3-0.3-1.9-0.3c-1.8,0-3.5,0.7-4.7,2c1.2,1.2,2.9,2,4.7,2c0.4,0,0.9,0,1.3-0.1c0,2.3,1.4,4.1,1.7,6.3
				c0.2,1.1,0,1.8,0,3c0,4,3.3,7.3,7.3,7.3s7.3-3.3,7.3-7.3c0-1.2-0.2-1.9,0-3c0.3-2.2,1.7-4,1.7-6.3c0.4,0.1,0.9,0.1,1.3,0.1
				C31.1,20.4,32.8,19.6,34,18.4z"/>
		</g>
		<g>
			<path fill="#FFFFFF" d="M19,30c-2.6,0-4.7,0-4.7,3c0,1.7,2.1,3,4.7,3s4.7-1.3,4.7-3C23.7,30,21.6,30,19,30z M16.4,34.3
				c-0.7,0-1.3-0.6-1.3-1.3s0.6-1.3,1.3-1.3s1.3,0.6,1.3,1.3S17.1,34.3,16.4,34.3z M21.6,34.3c-0.7,0-1.3-0.6-1.3-1.3
				s0.6-1.3,1.3-1.3s1.3,0.6,1.3,1.3S22.3,34.3,21.6,34.3z"/>
		</g>
		<g>
			<circle fill="#FFFFFF" cx="14.7" cy="21" r="1.3"/>
		</g>
		<g>
			<circle fill="#FFFFFF" cx="23.3" cy="21" r="1.3"/>
		</g>
	</g>
	<g>
		<g>
			<path d="M44,31c-0.6-0.6-1.5-1-2.5-1c-0.4,0-0.7,0.1-1,0.2c0-0.1-0.1-0.2-0.1-0.3C40,29,40,29,38.9,28.1
				c-0.8-0.6-1.8-0.9-2.9-0.9c-1,0-2,0.3-2.8,0.9c-1.2,1-1.2,1-1.5,1.8c-0.1,0.1-0.1,0.2-0.1,0.3c-0.3-0.1-0.7-0.2-1-0.2
				c-1,0-1.9,0.4-2.5,1c0.6,0.6,1.5,1,2.5,1c0.2,0,0.5,0,0.7-0.1c0,1.2,0.7,2.2,0.9,3.4c0.1,0.6,0,1,0,1.6c0,2.1,1.7,3.9,3.9,3.9
				s3.9-1.7,3.9-3.9c0-0.6-0.1-1,0-1.6c0.2-1.2,0.9-2.1,0.9-3.4c0.2,0,0.5,0.1,0.7,0.1C42.5,32.1,43.4,31.7,44,31z"/>
		</g>
		<g>
			<path fill="#FFFFFF" d="M36,37.2c-1.4,0-2.5,0-2.5,1.6c0,0.9,1.1,1.6,2.5,1.6s2.5-0.7,2.5-1.6C38.5,37.2,37.4,37.2,36,37.2z
				 M34.6,39.5c-0.4,0-0.7-0.3-0.7-0.7s0.3-0.7,0.7-0.7s0.7,0.3,0.7,0.7S35,39.5,34.6,39.5z M37.4,39.5c-0.4,0-0.7-0.3-0.7-0.7
				s0.3-0.7,0.7-0.7s0.7,0.3,0.7,0.7S37.8,39.5,37.4,39.5z"/>
		</g>
		<g>
			<circle fill="#FFFFFF" cx="33.7" cy="32.4" r="0.7"/>
		</g>
		<g>
			<circle fill="#FFFFFF" cx="38.3" cy="32.4" r="0.7"/>
		</g>
	</g>
</g>
</svg>
