<?xml version="1.0" encoding="utf-8"?>
<!-- Generator: Adobe Illustrator 22.1.0, SVG Export Plug-In . SVG Version: 6.00 Build 0)  -->
<svg version="1.1" id="Layer_1" xmlns="http://www.w3.org/2000/svg" xmlns:xlink="http://www.w3.org/1999/xlink" x="0px" y="0px"
	 width="48px" height="48px" viewBox="0 0 48 48" enable-background="new 0 0 48 48" xml:space="preserve" fill="#fff">
<g>
	<g>
		<rect fill="none" width="48" height="48"/>
	</g>
	<g>
		<path d="M28.5,16.1c0-2.5-2-4.5-4.5-4.5s-4.5,2-4.5,4.5c0,6-7.5,9-7.5,9v14.2h24V25.1C36,25.1,28.5,22.1,28.5,16.1z M24,13.9
			c1.2,0,2.2,1,2.2,2.2s-1,2.2-2.2,2.2s-2.2-1-2.2-2.2S22.8,13.9,24,13.9z M21,33.7c0,0.8,0,1.3-0.1,1.7c-0.1,0.3-0.3,0.7-0.5,1
			c-0.3,0.3-0.6,0.5-0.9,0.6c-0.4,0.1-0.8,0.2-1.2,0.2c-0.6,0-1.1-0.1-1.5-0.2s-0.7-0.4-0.9-0.6c-0.2-0.3-0.4-0.6-0.5-0.9
			c-0.1-0.3-0.1-0.8-0.1-1.5v-3.5c0-0.9,0.1-1.6,0.2-2.1c0.2-0.5,0.5-0.8,0.9-1.1c0.5-0.3,1-0.4,1.7-0.4c0.5,0,1,0.1,1.5,0.3
			c0.4,0.2,0.8,0.4,1,0.7c0.2,0.3,0.4,0.6,0.4,0.9c0.1,0.3,0.1,0.9,0.1,1.7V33.7z M27.7,33.7c0,0.8,0,1.3-0.1,1.7
			c-0.1,0.3-0.3,0.7-0.5,1c-0.3,0.3-0.6,0.5-0.9,0.6c-0.4,0.1-0.8,0.2-1.2,0.2c-0.6,0-1.1-0.1-1.5-0.2s-0.7-0.4-0.9-0.6
			c-0.2-0.3-0.4-0.6-0.5-0.9c-0.1-0.3-0.1-0.8-0.1-1.5v-3.5c0-0.9,0.1-1.6,0.2-2.1c0.2-0.5,0.5-0.8,0.9-1.1c0.5-0.3,1-0.4,1.7-0.4
			c0.5,0,1,0.1,1.5,0.3c0.4,0.2,0.8,0.4,1,0.7c0.2,0.3,0.4,0.6,0.4,0.9c0.1,0.3,0.1,0.9,0.1,1.7V33.7z M27.8,24.4h-7.5v-2.2h7.5
			V24.4z M32.5,37H30v-5.4c0-0.8,0-1.2-0.1-1.4c0-0.2-0.1-0.3-0.3-0.4s-0.5-0.1-1.1-0.1h-0.2v-1.2c1.2-0.3,2.1-0.8,2.7-1.6h1.5V37z"
			/>
		<path d="M18,28.4c-0.2,0-0.3,0.1-0.4,0.2c-0.1,0.1-0.1,0.5-0.1,1v4.9c0,0.6,0,0.9,0.1,1c0.1,0.1,0.2,0.2,0.4,0.2
			c0.2,0,0.3-0.1,0.4-0.2c0.1-0.1,0.1-0.5,0.1-0.9v-4.9c0-0.5,0-0.9-0.1-1C18.3,28.4,18.2,28.4,18,28.4z"/>
		<path d="M24.8,28.4c-0.2,0-0.3,0.1-0.4,0.2c-0.1,0.1-0.1,0.5-0.1,1v4.9c0,0.6,0,0.9,0.1,1c0.1,0.1,0.2,0.2,0.4,0.2
			c0.2,0,0.3-0.1,0.4-0.2c0.1-0.1,0.1-0.5,0.1-0.9v-4.9c0-0.5,0-0.9-0.1-1C25.1,28.4,25,28.4,24.8,28.4z"/>
	</g>
</g>
</svg>
