<?xml version="1.0" encoding="utf-8"?>
<!-- Generator: Adobe Illustrator 22.1.0, SVG Export Plug-In . SVG Version: 6.00 Build 0)  -->
<svg version="1.1" id="Layer_1" xmlns="http://www.w3.org/2000/svg" xmlns:xlink="http://www.w3.org/1999/xlink" x="0px" y="0px"
	 width="48px" height="48px" viewBox="0 0 48 48" enable-background="new 0 0 48 48" xml:space="preserve" fill="#fff">
<g>
	<g>
		<rect fill="none" width="48" height="48"/>
	</g>
	<g>
		<g>
			<path d="M31.8,12.5c-0.5,0-1.1,0.1-1.6,0.2c-0.1-0.2-0.1-0.3-0.2-0.5c0.9-1,1.5-2.2,1.5-3.6c0-1.9-0.7-3.3-2.7-4.7
				c0.6,0.8,1,1.8,1,2.9c0,1.6-0.7,2.3-2,2.7c-1.2-0.9-2.7-1.4-4.3-1.4c-1.6,0-3,0.5-4.2,1.4c-1.3-0.4-2.1-1.1-2.1-2.6
				c0-1.1,0.4-2.1,1-2.9c-2,1.3-2.7,2.8-2.7,4.7c0,1.3,0.5,2.6,1.5,3.6c-0.1,0.2-0.2,0.3-0.2,0.5c-0.5-0.2-1-0.2-1.6-0.2
				c-1.5,0-2.8,0.6-3.8,1.6c1,1,2.3,1.6,3.8,1.6c0.4,0,0.7,0,1-0.1c0,1.9,1.1,3.4,1.4,5.1c0.1,0.9,0,1.5,0,2.4
				c0,3.3,2.6,5.9,5.9,5.9s5.9-2.6,5.9-5.9c0-0.9-0.1-1.6,0-2.4c0.3-1.8,1.3-3.2,1.4-5.1c0.3,0.1,0.7,0.1,1,0.1
				c1.5,0,2.8-0.6,3.8-1.6C34.7,13.1,33.3,12.5,31.8,12.5z M20,17.2c-0.6,0-1-0.5-1-1c0-0.6,0.5-1,1-1c0.6,0,1,0.5,1,1
				C21.1,16.7,20.6,17.2,20,17.2z M27,17.2c-0.6,0-1-0.5-1-1c0-0.6,0.5-1,1-1c0.6,0,1,0.5,1,1C28,16.7,27.5,17.2,27,17.2z"/>
		</g>
		<g>
			<path fill="#CA6924" d="M23.5,23.4c-2.1,0-3.8,0-3.8,2.4c0,1.3,1.7,2.4,3.8,2.4s3.8-1.1,3.8-2.4C27.3,23.4,25.6,23.4,23.5,23.4z
				 M21.4,26.9c-0.6,0-1-0.5-1-1s0.5-1,1-1c0.6,0,1,0.5,1,1S22,26.9,21.4,26.9z M25.6,26.9c-0.6,0-1-0.5-1-1s0.5-1,1-1
				c0.6,0,1,0.5,1,1S26.2,26.9,25.6,26.9z"/>
		</g>
	</g>
	<path d="M38,37c-0.8,0-1.5,0.5-1.8,1.2l-7.7-2.7l7.8-2.8c0.1,0.2,0.2,0.5,0.4,0.6c0.8,0.8,2,0.9,2.8,0.1s0.9-2,0.1-2.8
		c-0.3-0.3-0.6-0.5-1-0.6c0.4-0.7,0.3-1.7-0.3-2.3c-0.8-0.8-2-0.9-2.8-0.1c-0.7,0.6-0.8,1.6-0.4,2.3l-11.1,4l-11.2-4
		c0.1-0.3,0.2-0.6,0.2-0.9c0-1.1-0.9-2-2-2s-2,0.9-2,2c0,0.4,0.1,0.8,0.3,1.1C8.6,30.4,8,31.1,8,32c0,1.1,0.9,2,2,2
		c0.8,0,1.5-0.5,1.8-1.2l7.7,2.7l-7.8,2.8c-0.1-0.2-0.2-0.5-0.4-0.6c-0.8-0.8-2-0.9-2.8-0.1s-0.9,2-0.1,2.8c0.3,0.3,0.6,0.5,1,0.6
		c-0.4,0.7-0.3,1.7,0.3,2.3c0.8,0.8,2,0.9,2.8,0.1c0.7-0.6,0.8-1.6,0.4-2.3l11.1-4l11.2,4C35.1,41.4,35,41.7,35,42c0,1.1,0.9,2,2,2
		s2-0.9,2-2c0-0.4-0.1-0.8-0.3-1.1c0.8-0.3,1.3-1,1.3-1.9C40,37.9,39.1,37,38,37z"/>
</g>
</svg>
