<?xml version="1.0" encoding="utf-8"?>
<!-- Generator: Adobe Illustrator 22.1.0, SVG Export Plug-In . SVG Version: 6.00 Build 0)  -->
<svg version="1.1" id="Layer_1" xmlns="http://www.w3.org/2000/svg" xmlns:xlink="http://www.w3.org/1999/xlink" x="0px" y="0px"
	 width="48px" height="48px" viewBox="0 0 48 48" enable-background="new 0 0 48 48" xml:space="preserve">
<g>
	<g>
		<rect fill="none" width="48" height="48"/>
	</g>
	<path d="M37.9,13.3C37.9,13.2,37.8,13.2,37.9,13.3c0.8-1,2.1-2.9,2.1-4.2c0-1.5-1.2-2.7-2.7-2.7c-1.5,0-2.7,1.2-2.7,2.7
		C34.4,9,34.2,9,33.9,9c0,0-6-0.6-9.9-0.6S15,9,15,9c-0.2,0-0.5,0-0.7,0.1c0-1.5-1.2-2.6-2.7-2.6C10.2,6.4,9,7.6,9,9
		c0,1.3,1.3,3,2.1,4c0,0.1,0,0.1,0,0.2c0,0,0.2,8.8,0.2,11.7c0.1,2.6,0.3,10.5,0.3,10.5c-0.7,1-1.6,2.4-1.6,3.5
		c0,1.5,1.2,2.7,2.7,2.7c1.4,0,2.5-1.2,2.7-2.6c0,0,5.8,0.6,9.7,0.6s8.8-0.6,8.8-0.6c0,1.4,1.2,2.6,2.7,2.6c1.5,0,2.7-1.2,2.7-2.7
		c0-1.1-1-2.7-1.8-3.7c0,0,0.3-7.7,0.4-10.3C37.8,22,37.9,13.3,37.9,13.3z"/>
	<g>
		<g>
			<path fill="#FFFFFF" d="M30.3,21.7c-0.4,0-0.8,0.1-1.1,0.2c0-0.1-0.1-0.2-0.2-0.3c0.6-0.7,1-1.6,1-2.5c0-1.3-0.5-2.3-1.9-3.3
				c0.5,0.6,0.7,1.3,0.7,2.1c0,1.1-0.5,1.6-1.4,1.9c-0.8-0.6-1.9-1-3-1c-1.1,0-2.1,0.4-3,1c-0.9-0.3-1.5-0.8-1.5-1.8
				c0-0.8,0.3-1.5,0.7-2.1c-1.4,0.9-1.9,2-1.9,3.3c0,0.9,0.4,1.8,1,2.5c-0.1,0.1-0.1,0.2-0.2,0.3c-0.3-0.1-0.7-0.2-1.1-0.2
				c-1,0-2,0.4-2.7,1.1c0.7,0.7,1.6,1.1,2.7,1.1c0.3,0,0.5,0,0.7-0.1c0,1.3,0.8,2.4,1,3.6c0.1,0.6,0,1,0,1.7c0,2.3,1.8,4.1,4.1,4.1
				s4.1-1.8,4.1-4.1c0-0.7-0.1-1.1,0-1.7c0.2-1.2,0.9-2.2,1-3.6c0.2,0,0.5,0.1,0.7,0.1c1,0,2-0.4,2.7-1.1
				C32.3,22.1,31.4,21.7,30.3,21.7z M22.1,25c-0.4,0-0.7-0.3-0.7-0.7s0.3-0.7,0.7-0.7s0.7,0.3,0.7,0.7S22.5,25,22.1,25z M26.9,25
				c-0.4,0-0.7-0.3-0.7-0.7s0.3-0.7,0.7-0.7s0.7,0.3,0.7,0.7S27.3,25,26.9,25z"/>
		</g>
		<g>
			<path d="M24.5,29.4c-1.5,0-2.7,0-2.7,1.7c0,0.9,1.2,1.7,2.7,1.7s2.7-0.8,2.7-1.7C27.2,29.4,26,29.4,24.5,29.4z M23,31.8
				c-0.4,0-0.7-0.3-0.7-0.7c0-0.4,0.3-0.7,0.7-0.7c0.4,0,0.7,0.3,0.7,0.7C23.8,31.5,23.4,31.8,23,31.8z M26,31.8
				c-0.4,0-0.7-0.3-0.7-0.7c0-0.4,0.3-0.7,0.7-0.7c0.4,0,0.7,0.3,0.7,0.7C26.7,31.5,26.4,31.8,26,31.8z"/>
		</g>
	</g>
</g>
</svg>
