<?xml version="1.0" encoding="utf-8"?>
<!-- Generator: Adobe Illustrator 22.1.0, SVG Export Plug-In . SVG Version: 6.00 Build 0)  -->
<svg version="1.1" id="Layer_1" xmlns="http://www.w3.org/2000/svg" xmlns:xlink="http://www.w3.org/1999/xlink" x="0px" y="0px"
	 width="48px" height="48px" viewBox="0 0 48 48" enable-background="new 0 0 48 48" xml:space="preserve">
<g>
	<rect fill="none" width="48" height="48"/>
</g>
<g>
	<path d="M31.1,6c0.9,1.2,1.5,2.7,1.5,4.2c0,4.3-3.6,4.2-8.6,4.2s-9.6,0-9.6-4.2c0-1.6,0.5-3,1.5-4.2C13,7.9,12,10,12,12.7
		c0,5,5.1,9,11.5,9s11.5-4,11.5-9C35,10,34,7.9,31.1,6z"/>
</g>
<g>
	<path d="M34,22.5C34,16.7,29.3,12,23.5,12S13,16.7,13,22.5c0,2.8,1.6,4.9,2,7.5c0.2,1.3,0,2.1,0,3.5c0,4.7,3.8,8.5,8.5,8.5
		s8.5-3.8,8.5-8.5c0-1.4-0.2-2.2,0-3.5C32.4,27.4,34,25.3,34,22.5z"/>
</g>
<g>
	<ellipse fill="#FFFFFF" cx="23.5" cy="37.5" rx="5.5" ry="3.5"/>
</g>
<g>
	<ellipse cx="11.5" cy="20.5" rx="5.5" ry="2.3"/>
</g>
<g>
	<ellipse cx="35.5" cy="20.5" rx="5.5" ry="2.3"/>
</g>
<g>
	<circle cx="20.5" cy="37.5" r="1.5"/>
</g>
<g>
	<circle cx="26.5" cy="37.5" r="1.5"/>
</g>
<g>
	<circle fill="#FFFFFF" cx="18.5" cy="23.5" r="1.5"/>
</g>
<g>
	<circle fill="#FFFFFF" cx="28.5" cy="23.5" r="1.5"/>
</g>
</svg>
