<?xml version="1.0" encoding="utf-8"?>
<!-- Generator: Adobe Illustrator 22.1.0, SVG Export Plug-In . SVG Version: 6.00 Build 0)  -->
<svg version="1.1" id="Layer_1" xmlns="http://www.w3.org/2000/svg" xmlns:xlink="http://www.w3.org/1999/xlink" x="0px" y="0px"
	 width="48px" height="48px" viewBox="0 0 48 48" enable-background="new 0 0 48 48" xml:space="preserve" fill="#fff">
<g>
	<g>
		<rect fill="none" width="48" height="48"/>
	</g>
	<g>
		<path d="M35.4,11l-6.1-3.5c-0.5-0.3-1.1-0.1-1.4,0.4S27.9,9,28.4,9.3l0.9,0.5l-2,3.5l4.3,2.5l2-3.5l0.9,0.5
			c0.5,0.3,1.1,0.1,1.4-0.4S35.9,11.3,35.4,11z"/>
	</g>
	<g>
		<path d="M34,19.5L22.8,13c-0.5-0.3-1.1-0.1-1.4,0.4s-0.1,1.1,0.4,1.4l1.7,1L14,32.2c-0.6,1-0.2,2.2,0.7,2.7l1.3,0.7L13.6,40
			l3.2-1.6l1-1.7l1.3,0.7c1,0.6,2.2,0.2,2.7-0.7l1-1.7l-3.5-2l1-1.7l3.5,2l2-3.5l-3.5-2l1-1.7l3.5,2l2-3.5l-3.5-2l1-1.7l3.5,2
			l1.5-2.6l1.7,1c0.5,0.3,1.1,0.1,1.4-0.4C34.7,20.4,34.5,19.8,34,19.5z"/>
	</g>
</g>
</svg>
