<?xml version="1.0" encoding="utf-8"?>
<!-- Generator: Adobe Illustrator 22.1.0, SVG Export Plug-In . SVG Version: 6.00 Build 0)  -->
<svg version="1.1" id="Layer_1" xmlns="http://www.w3.org/2000/svg" xmlns:xlink="http://www.w3.org/1999/xlink" x="0px" y="0px"
	 width="48px" height="48px" viewBox="0 0 48 48" enable-background="new 0 0 48 48" xml:space="preserve">
<g>
	<g>
		<rect fill="none" width="48" height="48"/>
	</g>
	<g>
		<g>
			<circle cx="22.4" cy="37" r="1.3"/>
		</g>
		<g>
			<circle cx="27.6" cy="37" r="1.3"/>
		</g>
		<g>
			<path d="M35.3,20.5c-0.7,0-1.3,0.1-1.9,0.3c-0.1-0.2-0.2-0.4-0.3-0.6c1.1-1.3,1.8-2.8,1.8-4.4c0-2.3-0.9-4.1-3.3-5.7
				c0.8,1,1.3,2.3,1.3,3.6c0,2-0.9,2.9-2.5,3.3c-1.2-0.9-2.7-1.5-4.4-1.7c-0.1,3.7-2.1,6.9-5.1,8.5c0.6,0.1,1.1,0.6,1.1,1.3
				c0,0.7-0.6,1.3-1.3,1.3s-1.3-0.6-1.3-1.3c0-0.3,0.1-0.5,0.2-0.7c-1.1,0.4-2.3,0.7-3.6,0.7c0.3,2,1.4,3.6,1.6,5.6
				c0.2,1.1,0,1.8,0,3c0,4,3.3,7.3,7.3,7.3s7.3-3.3,7.3-7.3c0-1.2-0.2-1.9,0-3c0.3-2.2,1.7-4,1.7-6.3c0.4,0.1,0.9,0.1,1.3,0.1
				c1.8,0,3.5-0.7,4.7-2C38.8,21.2,37.1,20.5,35.3,20.5z M25,40c-2.6,0-4.7-1.3-4.7-3c0-3,2.1-3,4.7-3s4.7,0,4.7,3
				C29.7,38.7,27.6,40,25,40z M29.3,26.3c-0.7,0-1.3-0.6-1.3-1.3s0.6-1.3,1.3-1.3s1.3,0.6,1.3,1.3S30,26.3,29.3,26.3z"/>
		</g>
	</g>
	<path d="M16,7c-4.4,0-8,3.6-8,8s3.6,8,8,8s8-3.6,8-8S20.4,7,16,7z M15.4,13.9c0.2,0.2,0.5,0.3,0.9,0.5c0.4,0.2,0.8,0.3,1.1,0.5
		c0.3,0.2,0.5,0.3,0.7,0.5c0.2,0.2,0.3,0.4,0.4,0.7c0.1,0.2,0.2,0.5,0.2,0.9c0,0.6-0.2,1.1-0.6,1.5S17.2,19,16.5,19v1.1h-0.9V19
		c-0.7-0.1-1.3-0.3-1.7-0.8c-0.4-0.4-0.6-1-0.6-1.8h1.6c0,0.4,0.1,0.8,0.3,1c0.2,0.2,0.5,0.3,0.9,0.3c0.3,0,0.6-0.1,0.7-0.2
		c0.2-0.2,0.3-0.4,0.3-0.7c0-0.3-0.1-0.5-0.2-0.7c-0.2-0.2-0.4-0.3-0.8-0.5s-0.7-0.3-1-0.4c-0.3-0.1-0.5-0.3-0.7-0.5
		c-0.2-0.2-0.4-0.4-0.5-0.7c-0.1-0.3-0.2-0.6-0.2-0.9c0-0.6,0.2-1.1,0.6-1.5s0.9-0.6,1.5-0.7V9.9h0.9v1.2c0.6,0.1,1.1,0.4,1.5,0.8
		c0.4,0.4,0.5,1,0.5,1.7h-1.6c0-0.4-0.1-0.8-0.3-1c-0.2-0.2-0.4-0.3-0.7-0.3c-0.3,0-0.5,0.1-0.7,0.2c-0.2,0.2-0.2,0.4-0.2,0.7
		C15.2,13.5,15.3,13.7,15.4,13.9z"/>
</g>
</svg>
