<?xml version="1.0" encoding="utf-8"?>
<!-- Generator: Adobe Illustrator 22.1.0, SVG Export Plug-In . SVG Version: 6.00 Build 0)  -->
<svg version="1.1" id="Layer_1" xmlns="http://www.w3.org/2000/svg" xmlns:xlink="http://www.w3.org/1999/xlink" x="0px" y="0px"
	 width="48px" height="48px" viewBox="0 0 48 48" enable-background="new 0 0 48 48" xml:space="preserve">
<g>
	<g>
		<rect fill="none" width="48" height="48"/>
	</g>
	<g>
		<circle cx="26.5" cy="18.5" r="3.5"/>
	</g>
	<path d="M21.4,21.9c-1.4-1.2-4-0.5-5.6,1.6c-1.1,1.3-1.5,2.9-1.3,4.1c-0.1,0.1-0.2,0.2-0.3,0.3c-0.2,0.3-0.3,0.6-0.4,0.9
		c-0.8-0.2-3.1-0.4-5.2,2.1c-2.5,3.1-1,4.4-0.9,5.8s-1.1,3-1.9,2.3c0,0,1.5,1.3,3.4-1.1c1.9-2.3,0.4-3.6,1.6-5.1
		c1.1-1.4,2.5-0.5,4.1-2c0.7,0.2,1.5,0,1.9-0.6c0.1-0.1,0.1-0.2,0.2-0.3c1.3-0.1,2.7-0.8,3.8-2.1C22.7,25.7,22.9,23.1,21.4,21.9z"/>
	<g>
		<path d="M26.5,8C20.7,8,16,12.7,16,18.5c0,0.7,0.1,1.3,0.2,2c0.6-0.4,1.2-0.7,1.9-0.9c0-0.4-0.1-0.7-0.1-1.1
			c0-4.7,3.8-8.5,8.5-8.5s8.5,3.8,8.5,8.5c0,4.7-3.8,8.5-8.5,8.5c-0.9,0-1.8-0.1-2.6-0.4c-0.2,0.6-0.6,1.2-1,1.8
			c1.1,0.4,2.3,0.6,3.5,0.6C32.3,29,37,24.3,37,18.5C37,12.7,32.3,8,26.5,8z"/>
	</g>
	<path d="M36.1,39.7c0.3-0.7,1.3-1,0.7-3c-0.5-1.6-1.7-1.9-2.2-2c0-0.2,0.1-0.3,0-0.5c0-0.1-0.1-0.1-0.1-0.2
		c0.3-0.6,0.4-1.4,0.1-2.3c-0.4-1.3-1.5-2.1-2.4-1.8c-0.9,0.3-1.3,1.6-0.9,2.9c0.3,0.9,0.8,1.5,1.5,1.8c0,0.1,0,0.1,0,0.2
		c0.1,0.4,0.5,0.6,0.8,0.6c0.5,1,1.3,0.9,1.6,1.7c0.3,1-0.7,1.3-0.2,2.8s1.5,1.2,1.5,1.2C36.1,41.3,35.7,40.3,36.1,39.7z"/>
</g>
</svg>
