<?xml version="1.0" encoding="utf-8"?>
<!-- Generator: Adobe Illustrator 22.1.0, SVG Export Plug-In . SVG Version: 6.00 Build 0)  -->
<svg version="1.1" id="Layer_1" xmlns="http://www.w3.org/2000/svg" xmlns:xlink="http://www.w3.org/1999/xlink" x="0px" y="0px"
	 width="48px" height="48px" viewBox="0 0 48 48" enable-background="new 0 0 48 48" xml:space="preserve" fill="#fff">
<g>
	<g>
		<rect fill="none" width="48" height="48"/>
	</g>
	<g>
		<g>
			<path d="M18.4,12c-0.3,0-0.7,0.1-1,0.1c0-0.1-0.1-0.2-0.1-0.3c0.6-0.6,0.9-1.4,0.9-2.2c0-1.1-0.4-2-1.6-2.8
				c0.4,0.5,0.6,1.1,0.6,1.8c0,1-0.5,1.4-1.2,1.6c-0.7-0.5-1.6-0.9-2.6-0.9c-1,0-1.8,0.3-2.6,0.8C10,10,9.5,9.5,9.5,8.6
				c0-0.7,0.2-1.3,0.6-1.8C9,7.6,8.5,8.5,8.5,9.6c0,0.8,0.3,1.6,0.9,2.2c0,0.1-0.1,0.2-0.1,0.3C9,12,8.7,12,8.3,12
				c-0.9,0-1.7,0.4-2.3,1c0.6,0.6,1.4,1,2.3,1c0.2,0,0.4,0,0.6-0.1c0,1.2,0.7,2,0.8,3.1c0.1,0.5,0,0.9,0,1.5c0,2,1.6,3.6,3.6,3.6
				s3.6-1.6,3.6-3.6c0-0.6-0.1-0.9,0-1.5c0.2-1.1,0.8-2,0.8-3.1c0.2,0,0.4,0.1,0.6,0.1c0.9,0,1.7-0.4,2.3-1
				C20.2,12.3,19.4,12,18.4,12z M11.3,14.8c-0.3,0-0.6-0.3-0.6-0.6s0.3-0.6,0.6-0.6s0.6,0.3,0.6,0.6S11.6,14.8,11.3,14.8z
				 M15.5,14.8c-0.3,0-0.6-0.3-0.6-0.6s0.3-0.6,0.6-0.6s0.6,0.3,0.6,0.6S15.8,14.8,15.5,14.8z"/>
		</g>
		<g>
			<path fill="#7A942E" d="M13.4,18.6c-1.3,0-2.3,0-2.3,1.5c0,0.8,1,1.5,2.3,1.5s2.3-0.7,2.3-1.5C15.7,18.6,14.7,18.6,13.4,18.6z
				 M12.1,20.7c-0.3,0-0.6-0.3-0.6-0.6s0.3-0.6,0.6-0.6s0.6,0.3,0.6,0.6S12.5,20.7,12.1,20.7z M14.6,20.7c-0.3,0-0.6-0.3-0.6-0.6
				s0.3-0.6,0.6-0.6s0.6,0.3,0.6,0.6S15,20.7,14.6,20.7z"/>
		</g>
	</g>
	<g>
		<g>
			<path d="M39.7,31c-0.3,0-0.7,0.1-1,0.1c0-0.1-0.1-0.2-0.1-0.3c0.6-0.6,0.9-1.4,0.9-2.2c0-1.1-0.4-2-1.6-2.8
				c0.4,0.5,0.6,1.1,0.6,1.8c0,1-0.5,1.4-1.2,1.6c-0.7-0.5-1.6-0.9-2.6-0.9c-1,0-1.8,0.3-2.6,0.8c-0.8-0.2-1.3-0.7-1.3-1.6
				c0-0.7,0.2-1.3,0.6-1.8c-1.2,0.8-1.6,1.7-1.6,2.8c0,0.8,0.3,1.6,0.9,2.2c0,0.1-0.1,0.2-0.1,0.3c-0.3-0.1-0.6-0.1-1-0.1
				c-0.9,0-1.7,0.4-2.3,1c0.6,0.6,1.4,1,2.3,1c0.2,0,0.4,0,0.6-0.1c0,1.2,0.7,2,0.8,3.1c0.1,0.5,0,0.9,0,1.5c0,2,1.6,3.6,3.6,3.6
				c2,0,3.6-1.6,3.6-3.6c0-0.6-0.1-0.9,0-1.5c0.2-1.1,0.8-2,0.8-3.1c0.2,0,0.4,0.1,0.6,0.1c0.9,0,1.7-0.4,2.3-1
				C41.4,31.3,40.6,31,39.7,31z M32.5,33.8c-0.3,0-0.6-0.3-0.6-0.6s0.3-0.6,0.6-0.6s0.6,0.3,0.6,0.6S32.9,33.8,32.5,33.8z
				 M36.7,33.8c-0.3,0-0.6-0.3-0.6-0.6s0.3-0.6,0.6-0.6s0.6,0.3,0.6,0.6S37.1,33.8,36.7,33.8z"/>
		</g>
		<g>
			<path fill="#7A942E" d="M34.6,37.6c-1.3,0-2.3,0-2.3,1.5c0,0.8,1,1.5,2.3,1.5c1.3,0,2.3-0.7,2.3-1.5
				C36.9,37.6,35.9,37.6,34.6,37.6z M33.4,39.7c-0.3,0-0.6-0.3-0.6-0.6c0-0.3,0.3-0.6,0.6-0.6s0.6,0.3,0.6,0.6
				C34,39.5,33.7,39.7,33.4,39.7z M35.9,39.7c-0.3,0-0.6-0.3-0.6-0.6c0-0.3,0.3-0.6,0.6-0.6s0.6,0.3,0.6,0.6
				C36.5,39.5,36.2,39.7,35.9,39.7z"/>
		</g>
	</g>
	<polygon points="25,32 12.8,32 16.4,28.4 12.1,28.4 7,33.5 12.1,38.6 16.4,38.6 12.8,35 25,35 	"/>
	<polygon points="35.9,8.4 31.6,8.4 35.2,12 23,12 23,15 35.2,15 31.6,18.6 35.9,18.6 41,13.5 	"/>
</g>
</svg>
