<?xml version="1.0" encoding="utf-8"?>
<!-- Generator: Adobe Illustrator 22.1.0, SVG Export Plug-In . SVG Version: 6.00 Build 0)  -->
<svg version="1.1" id="Layer_1" xmlns="http://www.w3.org/2000/svg" xmlns:xlink="http://www.w3.org/1999/xlink" x="0px" y="0px"
	 width="48px" height="48px" viewBox="0 0 48 48" enable-background="new 0 0 48 48" xml:space="preserve" fill="#fff">
<g>
	<g>
		<rect fill="none" width="48" height="48"/>
	</g>
	<g>
		<path d="M37,11h-5.4c0.3,0.8,0.4,1.6,0.4,2.5c0,4.1-3.4,7.5-7.5,7.5S17,17.6,17,13.5c0-0.9,0.2-1.7,0.4-2.5H11c-1.1,0-2,0.9-2,2
			v24c0,1.1,0.9,2,2,2h26c1.1,0,2-0.9,2-2V13C39,11.9,38.1,11,37,11z"/>
	</g>
	<rect x="23" y="25" fill="#F9690E" width="3" height="11"/>
	<rect x="32" y="23" fill="#F9690E" width="3" height="10"/>
	<rect x="14" y="23" fill="#F9690E" width="3" height="10"/>
	<path d="M24.5,8c-3,0-5.5,2.5-5.5,5.5c0,3,2.5,5.5,5.5,5.5s5.5-2.5,5.5-5.5C30,10.5,27.5,8,24.5,8z M24.5,15
		c-0.8,0-1.4-0.6-1.5-1.3L22,11l2.7,1l0,0c0.7,0.1,1.3,0.7,1.3,1.5C26,14.3,25.3,15,24.5,15z"/>
</g>
</svg>
